<svg width="375" height="332" viewBox="0 0 375 332" fill="none" xmlns="http://www.w3.org/2000/svg">
<g filter="url(#filter0_d_256_40)">
<path d="M365.5 258.429C365.5 211.713 327.936 173.762 281.5 173.762C235.064 173.762 197.5 211.713 197.5 258.429C197.5 270.102 199.85 279.898 204.37 287.972C208.901 296.067 215.435 302.112 223.295 306.535C238.791 315.254 259.619 317.762 281.5 317.762C303.381 317.762 324.209 315.254 339.705 306.535C347.565 302.112 354.099 296.067 358.63 287.972C363.15 279.898 365.5 270.102 365.5 258.429Z" fill="#4C9DB9" stroke="#25505F" stroke-width="11"/>
<path d="M328 308.628C328 319.121 308.189 321 283.751 321C259.314 321 240 319.121 240 308.628C240 298.134 259.314 283 283.751 283C308.189 283 328 298.134 328 308.628Z" fill="#C2EFFF"/>
<path d="M365.5 258.429C365.5 211.713 327.936 173.762 281.5 173.762C235.064 173.762 197.5 211.713 197.5 258.429C197.5 270.102 199.85 279.898 204.37 287.972C208.901 296.067 215.435 302.112 223.295 306.535C238.791 315.254 259.619 317.762 281.5 317.762C303.381 317.762 324.209 315.254 339.705 306.535C347.565 302.112 354.099 296.067 358.63 287.972C363.15 279.898 365.5 270.102 365.5 258.429Z" stroke="#25505F" stroke-width="11"/>
<path d="M260.811 229.327C260.811 233.343 258.118 236.599 254.874 236.599C251.63 236.599 249 233.343 249 229.327C249 225.311 251.63 224 254.874 224C258.118 224 260.811 225.311 260.811 229.327Z" fill="#25505F"/>
<path d="M315.93 229.327C315.93 233.343 313.237 236.599 309.993 236.599C306.749 236.599 304.119 233.343 304.119 229.327C304.119 225.311 306.749 224 309.993 224C313.237 224 315.93 225.311 315.93 229.327Z" fill="#25505F"/>
<path d="M266.507 261.236C263.909 260.411 263.669 256.83 266.132 255.665L281.856 248.229C282.668 247.845 283.609 247.845 284.421 248.229L300.144 255.665C302.608 256.83 302.367 260.411 299.77 261.236L287.075 265.269C284.514 266.083 281.763 266.083 279.202 265.269L266.507 261.236Z" fill="#25505F"/>
<path d="M98.5 179.264C141.854 179.264 177 214.708 177 258.43C177 302.153 141.854 312.264 98.5 312.264C55.1456 312.264 20 302.153 20 258.43C20 214.708 55.1456 179.264 98.5 179.264Z" fill="#5DC790" stroke="#296445" stroke-width="11"/>
<path d="M132.93 236.289C127.816 236.682 122.341 234.411 119.921 231.748" stroke="#296445" stroke-width="9" stroke-linecap="round"/>
<path fill-rule="evenodd" clip-rule="evenodd" d="M101.461 262.623C101.917 262.839 102.342 263.135 102.715 263.508C102.854 263.646 102.982 263.792 103.099 263.945C105.765 267.238 108.529 267.719 111.084 267.284C114.018 266.784 116.876 264.973 118.546 263.407C120.359 261.707 123.207 261.799 124.907 263.612C126.607 265.425 126.515 268.273 124.702 269.973C122.164 272.352 117.763 275.275 112.596 276.156C108.326 276.883 103.68 276.165 99.532 272.982C95.3839 276.165 90.7377 276.883 86.4676 276.156C81.3008 275.275 76.9 272.352 74.3625 269.973C72.5494 268.273 72.4575 265.425 74.1573 263.612C75.8571 261.799 78.7048 261.707 80.5179 263.407C82.1883 264.973 85.0463 266.784 87.9799 267.284C90.5351 267.719 93.299 267.238 95.9649 263.945C96.0823 263.792 96.2105 263.646 96.3494 263.508C96.7216 263.135 97.147 262.839 97.6035 262.623C98.808 262.053 100.229 262.038 101.461 262.623Z" fill="#296445"/>
<path d="M66 235.469C71.0769 236.194 76.6895 234.287 79.2783 231.787" stroke="#296445" stroke-width="9" stroke-linecap="round"/>
<path d="M107.028 251.063C107.028 253.895 103.454 257.616 99.5323 257.616C95.6106 257.616 92.0369 253.895 92.0369 251.063C92.0369 248.231 95.6106 247.359 99.5323 247.359C103.454 247.359 107.028 248.231 107.028 251.063Z" fill="#296445"/>
<path d="M55.0562 221.207C41.9817 231.646 24.3577 231.31 15.6919 220.456C7.02604 209.603 10.6 192.342 23.6746 181.903C36.7491 171.464 44.6841 164.298 63.0389 182.653C71.7048 193.507 68.1308 210.768 55.0562 221.207Z" fill="#5DC790"/>
<path d="M140.674 221.207C153.748 231.646 171.372 231.31 180.038 220.456C188.704 209.603 185.13 192.342 172.055 181.903C158.981 171.464 151.046 164.298 132.691 182.653C124.025 193.507 127.599 210.768 140.674 221.207Z" fill="#5DC790"/>
<path d="M58.0001 212.042C36.5014 237.541 25.3567 231.352 16.6909 220.498C8.02505 209.644 11.599 192.383 24.6736 181.944C37.7481 171.505 52.9999 166.042 67 186.542" stroke="#296445" stroke-width="11" stroke-linecap="round"/>
<path d="M140.198 212.042C161.697 237.541 172.841 231.352 181.507 220.498C190.173 209.644 186.599 192.383 173.524 181.944C160.45 171.505 145.198 166.042 131.198 186.542" stroke="#296445" stroke-width="11" stroke-linecap="round"/>
<path fill-rule="evenodd" clip-rule="evenodd" d="M286.005 30.0015C286.248 16.7007 296.227 6 308.5 6C320.926 6 331 16.969 331 30.5C331 34.7661 329.999 38.7775 328.238 42.2708C349.765 55.8574 364 79.4104 364 106.19C364 148.269 328.854 158 285.5 158C242.146 158 207 148.269 207 106.19C207 79.0941 221.573 55.3016 243.528 41.7936C241.913 38.4141 241 34.5731 241 30.5C241 16.969 251.074 6 263.5 6C275.773 6 285.752 16.7006 285.995 30.0015C285.998 30.0015 286.002 30.0015 286.005 30.0015Z" fill="#E496DC"/>
<path d="M286.005 30.0015L285.97 35.5014L291.404 35.5355L291.504 30.1023L286.005 30.0015ZM328.238 42.2708L323.326 39.7953L321.078 44.2559L325.302 46.9219L328.238 42.2708ZM243.528 41.7936L246.41 46.478L250.623 43.8856L248.49 39.4221L243.528 41.7936ZM285.995 30.0015L280.496 30.1023L280.595 35.4678L285.961 35.5014L285.995 30.0015ZM291.504 30.1023C291.701 19.3551 299.65 11.5 308.5 11.5V0.5C292.803 0.5 280.796 14.0463 280.505 29.9008L291.504 30.1023ZM308.5 11.5C317.457 11.5 325.5 19.5563 325.5 30.5H336.5C336.5 14.3818 324.396 0.5 308.5 0.5V11.5ZM325.5 30.5C325.5 33.9013 324.702 37.0654 323.326 39.7953L333.149 44.7464C335.295 40.4897 336.5 35.6309 336.5 30.5H325.5ZM325.302 46.9219C345.343 59.5706 358.5 81.425 358.5 106.19H369.5C369.5 77.3958 354.186 52.1442 331.173 37.6197L325.302 46.9219ZM358.5 106.19C358.5 115.933 356.471 123.436 353.077 129.272C349.689 135.096 344.748 139.595 338.389 143.038C325.447 150.047 306.988 152.5 285.5 152.5V163.5C307.366 163.5 328.158 161.088 343.627 152.711C351.474 148.462 358.028 142.638 362.585 134.803C367.135 126.98 369.5 117.487 369.5 106.19H358.5ZM285.5 152.5C264.012 152.5 245.553 150.047 232.611 143.038C226.252 139.595 221.311 135.096 217.923 129.272C214.529 123.436 212.5 115.933 212.5 106.19H201.5C201.5 117.487 203.865 126.98 208.415 134.803C212.972 142.638 219.526 148.462 227.373 152.711C242.842 161.088 263.634 163.5 285.5 163.5V152.5ZM212.5 106.19C212.5 81.1331 225.97 59.0544 246.41 46.478L240.646 37.1093C217.177 51.5487 201.5 77.0551 201.5 106.19H212.5ZM248.49 39.4221C247.227 36.7788 246.5 33.7477 246.5 30.5H235.5C235.5 35.3986 236.599 40.0495 238.565 44.1651L248.49 39.4221ZM246.5 30.5C246.5 19.5563 254.543 11.5 263.5 11.5V0.5C247.604 0.5 235.5 14.3818 235.5 30.5H246.5ZM263.5 11.5C272.35 11.5 280.299 19.355 280.496 30.1023L291.495 29.9007C291.204 14.0462 279.197 0.5 263.5 0.5V11.5ZM285.961 35.5014C285.963 35.5014 285.966 35.5014 285.967 35.5014C285.969 35.5014 285.97 35.5014 285.97 35.5014L286.039 24.5017C286.037 24.5016 286.034 24.5016 286.033 24.5016C286.031 24.5016 286.03 24.5016 286.03 24.5016L285.961 35.5014Z" fill="#774672"/>
<path d="M264.811 78.3267C264.811 82.3429 262.118 85.5986 258.874 85.5986C255.63 85.5986 253 82.3429 253 78.3267C253 74.3106 255.63 73 258.874 73C262.118 73 264.811 74.3106 264.811 78.3267Z" fill="#774672"/>
<path d="M319.93 78.3267C319.93 82.3429 317.237 85.5986 313.993 85.5986C310.749 85.5986 308.119 82.3429 308.119 78.3267C308.119 74.3106 310.749 73 313.993 73C317.237 73 319.93 74.3106 319.93 78.3267Z" fill="#774672"/>
<path fill-rule="evenodd" clip-rule="evenodd" d="M267.195 108.388C268.742 106.443 271.573 106.121 273.518 107.668C279.199 112.188 283.136 113.739 286.34 113.719C289.467 113.701 292.973 112.173 297.788 107.844C299.636 106.182 302.481 106.333 304.143 108.181C305.805 110.029 305.653 112.874 303.805 114.536C298.323 119.466 292.75 122.681 286.393 122.719C280.112 122.757 274.158 119.678 267.915 114.711C265.97 113.164 265.648 110.333 267.195 108.388Z" fill="#774672"/>
<path d="M293.158 97.1692C293.158 99.9959 289.592 103.709 285.678 103.709C281.764 103.709 278.197 99.9959 278.197 97.1692C278.197 94.3425 281.764 93.4727 285.678 93.4727C289.592 93.4727 293.158 94.3425 293.158 97.1692Z" fill="#774672"/>
<mask id="path-22-outside-1_256_40" maskUnits="userSpaceOnUse" x="12" y="4" width="179" height="160" fill="black">
<rect fill="white" x="12" y="4" width="179" height="160"/>
<path fill-rule="evenodd" clip-rule="evenodd" d="M46.2053 25.8254C46.3334 18.8559 53.3738 14.1524 59.8614 16.7021L76.6648 23.3061C84.4701 20.6829 92.8206 19.2623 101.5 19.2623C109.939 19.2623 118.066 20.6051 125.684 23.0904L141.463 16.8891C147.95 14.3394 154.991 19.0429 155.119 26.0125L155.392 40.8657C170.544 55.2988 180 75.7502 180 98.4289C180 142.151 144.854 152.262 101.5 152.262C58.1456 152.262 23 142.151 23 98.4289C23 76.6159 31.7477 56.8633 45.8982 42.5446L46.2053 25.8254Z"/>
</mask>
<path fill-rule="evenodd" clip-rule="evenodd" d="M46.2053 25.8254C46.3334 18.8559 53.3738 14.1524 59.8614 16.7021L76.6648 23.3061C84.4701 20.6829 92.8206 19.2623 101.5 19.2623C109.939 19.2623 118.066 20.6051 125.684 23.0904L141.463 16.8891C147.95 14.3394 154.991 19.0429 155.119 26.0125L155.392 40.8657C170.544 55.2988 180 75.7502 180 98.4289C180 142.151 144.854 152.262 101.5 152.262C58.1456 152.262 23 142.151 23 98.4289C23 76.6159 31.7477 56.8633 45.8982 42.5446L46.2053 25.8254Z" fill="#F6C04B"/>
<path d="M59.8614 16.7021L55.8379 26.9398V26.9398L59.8614 16.7021ZM46.2053 25.8254L57.2035 26.0275L46.2053 25.8254ZM76.6648 23.3061L72.6413 33.5438L76.3707 35.0095L80.169 33.733L76.6648 23.3061ZM125.684 23.0904L122.272 33.548L126.029 34.7737L129.708 33.3281L125.684 23.0904ZM141.463 16.8891L137.439 6.6514L141.463 16.8891ZM155.119 26.0125L144.121 26.2145V26.2145L155.119 26.0125ZM155.392 40.8657L144.394 41.0678L144.478 45.6616L147.805 48.8306L155.392 40.8657ZM45.8982 42.5446L53.7222 50.2766L56.8155 47.1466L56.8963 42.7466L45.8982 42.5446ZM63.885 6.46439C50.2609 1.10994 35.4761 10.9874 35.2072 25.6234L57.2035 26.0275C57.1907 26.7245 56.4866 27.1948 55.8379 26.9398L63.885 6.46439ZM80.6884 13.0683L63.885 6.46439L55.8379 26.9398L72.6413 33.5438L80.6884 13.0683ZM101.5 8.26234C91.6131 8.26234 82.0799 9.88162 73.1606 12.8792L80.169 33.733C86.8604 31.4842 94.0281 30.2623 101.5 30.2623V8.26234ZM129.096 12.6329C120.39 9.79287 111.112 8.26234 101.5 8.26234V30.2623C108.765 30.2623 115.742 31.4174 122.272 33.548L129.096 12.6329ZM137.439 6.6514L121.66 12.8527L129.708 33.3281L145.486 27.1268L137.439 6.6514ZM166.117 25.8104C165.848 11.1744 151.063 1.29696 137.439 6.6514L145.486 27.1268C144.838 27.3818 144.134 26.9115 144.121 26.2145L166.117 25.8104ZM166.39 40.6636L166.117 25.8104L144.121 26.2145L144.394 41.0678L166.39 40.6636ZM191 98.4289C191 72.6319 180.231 49.3342 162.979 32.9007L147.805 48.8306C160.857 61.2634 169 78.8685 169 98.4289H191ZM101.5 163.262C123.585 163.262 145.616 160.773 162.402 151.328C171.02 146.479 178.34 139.752 183.43 130.659C188.496 121.607 191 110.845 191 98.4289H169C169 107.873 167.11 114.772 164.233 119.913C161.378 125.013 157.202 129.011 151.614 132.155C139.988 138.696 122.77 141.262 101.5 141.262V163.262ZM12 98.4289C12 110.845 14.5036 121.607 19.5704 130.659C24.6603 139.752 31.9805 146.479 40.598 151.328C57.384 160.773 79.4154 163.262 101.5 163.262V141.262C80.2303 141.262 63.0116 138.696 51.3862 132.155C45.798 129.011 41.6221 125.013 38.7674 119.913C35.8896 114.772 34 107.873 34 98.4289H12ZM38.0742 34.8125C21.962 51.1162 12 73.6185 12 98.4289H34C34 79.6132 41.5333 62.6105 53.7222 50.2766L38.0742 34.8125ZM35.2072 25.6234L34.9 42.3425L56.8963 42.7466L57.2035 26.0275L35.2072 25.6234Z" fill="#71571F" mask="url(#path-22-outside-1_256_40)"/>
<path d="M69 70.9639C74.1137 70.5723 79.5898 72.8388 82.0099 75.4973" stroke="#71571F" stroke-width="9" stroke-linecap="round"/>
<path fill-rule="evenodd" clip-rule="evenodd" d="M104.441 102.548C104.912 102.768 105.35 103.072 105.732 103.459C105.863 103.591 105.985 103.73 106.097 103.875C108.762 107.163 111.528 107.645 114.088 107.21C117.023 106.71 119.882 104.902 121.552 103.339C123.366 101.641 126.214 101.736 127.912 103.55C129.61 105.365 129.516 108.212 127.701 109.911C125.163 112.286 120.763 115.203 115.597 116.082C111.329 116.809 106.683 116.092 102.534 112.912C98.3847 116.092 93.7385 116.809 89.47 116.082C84.3048 115.203 79.9043 112.286 77.3661 109.911C75.5515 108.212 75.4571 105.365 77.1553 103.55C78.8535 101.736 81.7012 101.641 83.5158 103.339C85.1857 104.902 88.0443 106.71 90.9797 107.21C93.5393 107.645 96.3053 107.163 98.9707 103.875C99.0826 103.73 99.2042 103.591 99.3356 103.459C99.717 103.072 100.155 102.768 100.626 102.548C101.819 101.991 103.222 101.977 104.441 102.548Z" fill="#71571F"/>
<path d="M135.933 71.7831C130.856 71.0588 125.243 72.9631 122.654 75.458" stroke="#71571F" stroke-width="9" stroke-linecap="round"/>
<path d="M110.029 91.0253C110.029 93.8528 106.456 97.567 102.534 97.567C98.6117 97.567 95.0378 93.8528 95.0378 91.0253C95.0378 88.1979 98.6117 87.3279 102.534 87.3279C106.456 87.3279 110.029 88.1979 110.029 91.0253Z" fill="#71571F"/>
</g>
<defs>
<filter id="filter0_d_256_40" x="2.43213" y="0.5" width="372.568" height="330.762" filterUnits="userSpaceOnUse" color-interpolation-filters="sRGB">
<feFlood flood-opacity="0" result="BackgroundImageFix"/>
<feColorMatrix in="SourceAlpha" type="matrix" values="0 0 0 0 0 0 0 0 0 0 0 0 0 0 0 0 0 0 127 0" result="hardAlpha"/>
<feOffset dy="4"/>
<feGaussianBlur stdDeviation="2"/>
<feComposite in2="hardAlpha" operator="out"/>
<feColorMatrix type="matrix" values="0 0 0 0 0 0 0 0 0 0 0 0 0 0 0 0 0 0 0.25 0"/>
<feBlend mode="normal" in2="BackgroundImageFix" result="effect1_dropShadow_256_40"/>
<feBlend mode="normal" in="SourceGraphic" in2="effect1_dropShadow_256_40" result="shape"/>
</filter>
</defs>
</svg>
