<svg width="179" height="159" viewBox="0 0 179 159" fill="none" xmlns="http://www.w3.org/2000/svg">
<mask id="path-1-outside-1_200_3" maskUnits="userSpaceOnUse" x="0" y="-1" width="179" height="160" fill="black">
<rect fill="white" y="-1" width="179" height="160"/>
<path fill-rule="evenodd" clip-rule="evenodd" d="M34.2053 20.8254C34.3334 13.8559 41.3738 9.15238 47.8614 11.7021L64.6648 18.3061C72.4701 15.6829 80.8206 14.2623 89.5 14.2623C97.9385 14.2623 106.066 15.6051 113.684 18.0904L129.463 11.8891C135.95 9.33939 142.991 14.0429 143.119 21.0125L143.392 35.8657C158.544 50.2988 168 70.7502 168 93.4289C168 137.151 132.854 147.262 89.5 147.262C46.1456 147.262 11 137.151 11 93.4289C11 71.6159 19.7477 51.8633 33.8982 37.5446L34.2053 20.8254Z"/>
</mask>
<path fill-rule="evenodd" clip-rule="evenodd" d="M34.2053 20.8254C34.3334 13.8559 41.3738 9.15238 47.8614 11.7021L64.6648 18.3061C72.4701 15.6829 80.8206 14.2623 89.5 14.2623C97.9385 14.2623 106.066 15.6051 113.684 18.0904L129.463 11.8891C135.95 9.33939 142.991 14.0429 143.119 21.0125L143.392 35.8657C158.544 50.2988 168 70.7502 168 93.4289C168 137.151 132.854 147.262 89.5 147.262C46.1456 147.262 11 137.151 11 93.4289C11 71.6159 19.7477 51.8633 33.8982 37.5446L34.2053 20.8254Z" fill="#BDBDBD"/>
<path d="M47.8614 11.7021L43.8379 21.9398V21.9398L47.8614 11.7021ZM34.2053 20.8254L45.2035 21.0275L34.2053 20.8254ZM64.6648 18.3061L60.6413 28.5438L64.3707 30.0095L68.169 28.733L64.6648 18.3061ZM113.684 18.0904L110.272 28.548L114.029 29.7737L117.708 28.3281L113.684 18.0904ZM129.463 11.8891L125.439 1.6514L129.463 11.8891ZM143.119 21.0125L132.121 21.2145V21.2145L143.119 21.0125ZM143.392 35.8657L132.394 36.0678L132.478 40.6616L135.805 43.8306L143.392 35.8657ZM33.8982 37.5446L41.7222 45.2766L44.8155 42.1466L44.8963 37.7466L33.8982 37.5446ZM51.885 1.46439C38.2609 -3.89006 23.4761 5.98735 23.2072 20.6234L45.2035 21.0275C45.1907 21.7245 44.4866 22.1948 43.8379 21.9398L51.885 1.46439ZM68.6884 8.06834L51.885 1.46439L43.8379 21.9398L60.6413 28.5438L68.6884 8.06834ZM89.5 3.26234C79.6131 3.26234 70.0799 4.88162 61.1606 7.87915L68.169 28.733C74.8604 26.4842 82.0281 25.2623 89.5 25.2623V3.26234ZM117.096 7.63286C108.39 4.79287 99.1122 3.26234 89.5 3.26234V25.2623C96.7649 25.2623 103.742 26.4174 110.272 28.548L117.096 7.63286ZM125.439 1.6514L109.66 7.85269L117.708 28.3281L133.486 22.1268L125.439 1.6514ZM154.117 20.8104C153.848 6.17436 139.063 -3.70304 125.439 1.6514L133.486 22.1268C132.838 22.3818 132.134 21.9115 132.121 21.2145L154.117 20.8104ZM154.39 35.6636L154.117 20.8104L132.121 21.2145L132.394 36.0678L154.39 35.6636ZM179 93.4289C179 67.6319 168.231 44.3342 150.979 27.9007L135.805 43.8306C148.857 56.2634 157 73.8685 157 93.4289H179ZM89.5 158.262C111.585 158.262 133.616 155.773 150.402 146.328C159.02 141.479 166.34 134.752 171.43 125.659C176.496 116.607 179 105.845 179 93.4289H157C157 102.873 155.11 109.772 152.233 114.913C149.378 120.013 145.202 124.011 139.614 127.155C127.988 133.696 110.77 136.262 89.5 136.262V158.262ZM0 93.4289C0 105.845 2.50362 116.607 7.5704 125.659C12.6603 134.752 19.9805 141.479 28.598 146.328C45.384 155.773 67.4154 158.262 89.5 158.262V136.262C68.2303 136.262 51.0116 133.696 39.3862 127.155C33.798 124.011 29.6221 120.013 26.7674 114.913C23.8896 109.772 22 102.873 22 93.4289H0ZM26.0742 29.8125C9.96204 46.1162 0 68.6185 0 93.4289H22C22 74.6132 29.5333 57.6105 41.7222 45.2766L26.0742 29.8125ZM23.2072 20.6234L22.9 37.3425L44.8963 37.7466L45.2035 21.0275L23.2072 20.6234Z" fill="#909090" mask="url(#path-1-outside-1_200_3)"/>
<path d="M57 65.9639C62.1137 65.5723 67.5898 67.8388 70.0099 70.4972" stroke="#909090" stroke-width="9" stroke-linecap="round"/>
<path fill-rule="evenodd" clip-rule="evenodd" d="M92.4414 97.5482C92.9122 97.7681 93.3504 98.0725 93.7319 98.4587C93.8632 98.591 93.9849 98.73 94.0967 98.8747C96.7622 102.163 99.5281 102.645 102.088 102.21C105.023 101.71 107.882 99.9021 109.552 98.3393C111.366 96.6412 114.214 96.7355 115.912 98.5502C117.61 100.365 117.516 103.212 115.701 104.911C113.163 107.286 108.763 110.203 103.597 111.082C99.329 111.809 94.6828 111.092 90.5337 107.912C86.3847 111.092 81.7385 111.809 77.47 111.082C72.3048 110.203 67.9043 107.286 65.3661 104.911C63.5515 103.212 63.4571 100.365 65.1553 98.5502C66.8535 96.7355 69.7012 96.6412 71.5158 98.3393C73.1857 99.9021 76.0443 101.71 78.9797 102.21C81.5393 102.645 84.3053 102.163 86.9707 98.8747C87.0826 98.73 87.2042 98.591 87.3356 98.4587C87.717 98.0725 88.1553 97.7681 88.6261 97.5482C89.8194 96.9909 91.2222 96.9765 92.4414 97.5482Z" fill="#909090"/>
<path d="M123.933 66.7831C118.856 66.0588 113.243 67.9631 110.654 70.458" stroke="#909090" stroke-width="9" stroke-linecap="round"/>
<path d="M98.0294 86.0253C98.0294 88.8528 94.4555 92.567 90.5336 92.567C86.6117 92.567 83.0378 88.8528 83.0378 86.0253C83.0378 83.1979 86.6117 82.3279 90.5336 82.3279C94.4555 82.3279 98.0294 83.1979 98.0294 86.0253Z" fill="#909090"/>
</svg>
