<svg width="31" height="30" viewBox="0 0 31 30" fill="none" xmlns="http://www.w3.org/2000/svg">
<path d="M15.5008 0C6.9366 0 5.76312e-06 6.88245 5.76312e-06 15.3798C-0.00280087 18.6085 1.01958 21.756 2.92198 24.3754C4.82439 26.9949 7.51013 28.9531 10.5979 29.9721C11.3729 30.1059 11.6643 29.6445 11.6643 29.24C11.6643 28.8755 11.6442 27.6652 11.6442 26.3763C7.75039 27.0884 6.74284 25.4351 6.43283 24.5692C6.25767 24.1263 5.50278 22.7621 4.844 22.396C4.30147 22.1084 3.52643 21.3964 4.82385 21.3779C6.04531 21.3579 6.91645 22.4929 7.20787 22.9543C8.60293 25.2797 10.8304 24.6261 11.7217 24.2232C11.8581 23.2235 12.2642 22.5514 12.7106 22.1669C9.26172 21.7824 5.65779 20.4551 5.65779 14.5723C5.65779 12.899 6.25767 11.5164 7.24662 10.4398C7.09161 10.0553 6.54908 8.47887 7.40162 6.36415C7.40162 6.36415 8.69904 5.95967 11.6643 7.93904C12.9263 7.59245 14.2301 7.41808 15.5395 7.42074C16.8571 7.42074 18.1747 7.593 19.4147 7.93904C22.38 5.93967 23.6774 6.36415 23.6774 6.36415C24.53 8.47887 23.9874 10.0553 23.8324 10.4398C24.8198 11.5164 25.4213 12.8806 25.4213 14.5723C25.4213 20.4751 21.7987 21.7824 18.3498 22.1669C18.9109 22.6467 19.3961 23.5695 19.3961 25.0121C19.3961 27.0684 19.376 28.7217 19.376 29.2416C19.376 29.6445 19.6674 30.1244 20.4424 29.9706C23.5186 28.9388 26.1914 26.9763 28.0852 24.3591C29.9789 21.7419 30.9983 18.6016 31 15.3798C31 6.88245 24.0634 0 15.4992 0" fill="#A3A3A3"/>
</svg>
