<svg width="147" height="147" viewBox="0 0 147 147" fill="none" xmlns="http://www.w3.org/2000/svg">
<circle cx="73.5" cy="73.5" r="73" fill="#565656" stroke="white"/>
<mask id="mask0_37_207" style="mask-type:alpha" maskUnits="userSpaceOnUse" x="0" y="0" width="147" height="147">
<circle cx="73.5" cy="73.5" r="73.5" fill="#D9D9D9"/>
</mask>
<g mask="url(#mask0_37_207)">
<path d="M73.5 0L84.2436 47.5625L147 0L99.4375 62.7564L147 73.5L99.4375 84.2436L147 147L84.2436 99.4375L73.5 147L62.7564 99.4375L0 147L47.5625 84.2436L0 73.5L47.5625 62.7564L0 0L62.7564 47.5625L73.5 0Z" fill="url(#paint0_linear_37_207)"/>
</g>
<path d="M145 125.5C145 136.822 135.598 146 124 146C112.402 146 103 136.822 103 125.5C103 114.178 112.402 105 124 105C135.598 105 145 114.178 145 125.5Z" fill="#F9F9F9" fill-opacity="0.9"/>
<path fill-rule="evenodd" clip-rule="evenodd" d="M124 145.9C135.545 145.9 144.9 136.764 144.9 125.5C144.9 114.236 135.545 105.1 124 105.1C112.455 105.1 103.1 114.236 103.1 125.5C103.1 136.764 112.455 145.9 124 145.9ZM124 146C135.598 146 145 136.822 145 125.5C145 114.178 135.598 105 124 105C112.402 105 103 114.178 103 125.5C103 136.822 112.402 146 124 146Z" fill="black"/>
<path d="M117.615 119.392L117.712 121.018L128.689 131.559L130.097 129.844L119.119 119.303L117.615 119.392ZM115.369 117.235L119.855 116.969L134.653 131.206C134.86 131.423 135.024 131.666 135.146 131.935C135.268 132.205 135.338 132.492 135.356 132.796C135.374 133.1 135.339 133.398 135.25 133.69C135.161 133.981 135.018 134.238 134.819 134.459L133.434 136.116C133.254 136.355 133.036 136.535 132.778 136.655C132.52 136.776 132.259 136.844 131.996 136.859C131.714 136.876 131.443 136.839 131.181 136.75C130.92 136.66 130.677 136.508 130.453 136.292L115.656 122.084L115.369 117.235ZM129.379 130.688L130.097 129.844L128.689 131.559L129.379 130.688Z" fill="#5E5E5E"/>
<defs>
<linearGradient id="paint0_linear_37_207" x1="147" y1="72.03" x2="1.49193e-06" y2="74.97" gradientUnits="userSpaceOnUse">
<stop stop-color="#0AD3FF"/>
<stop offset="0.39" stop-color="#00FFC2"/>
<stop offset="0.675" stop-color="#DBFF00"/>
</linearGradient>
</defs>
</svg>
